<svg viewBox="403.8964 160.9413 451.2 399.95" xmlns="http://www.w3.org/2000/svg">
    <g transform="matrix(1, 0, 0, 1, -770.503662109375, -339.08873748779297)">
        <path style="fill:#D6F1ED;" d="M1174.4,746.74V512.03c0-6.63,5.37-12,12-12h294.71c6.63,0,12,5.37,12,12v234.72c0,6.63-5.37,12-12,12H1186.4 C1179.78,758.74,1174.4,753.37,1174.4,746.74z"/>
        <path style="fill:#316CFF;" d="M1239.4,809.23V574.52c0-6.63,5.37-12,12-12h294.71c6.63,0,12,5.37,12,12v234.72c0,6.63-5.37,12-12,12H1251.4 C1244.77,821.23,1239.4,815.86,1239.4,809.23z"/>
        <path style="fill:#DCFF4A;" d="M1306.89,883.97V657.26c0-8.84,7.16-16,16-16h286.71c8.84,0,16,7.16,16,16v226.72c0,8.84-7.16,16-16,16 h-286.71C1314.05,899.97,1306.89,892.81,1306.89,883.97z"/>
    </g>
</svg>
